PathFileType	4	(X/Y/Z)	Kaydara																																																																																																																									
DataRate	CameraRate	NumFrames	NumMarkers	Units	OrigDataRate	OrigDataStartFrame	OrigNumFrames																																																																																																																					
30	30	7	41	mm	30	16	174																																																																																																																					
Frame#	Time	SALE_LFHD			SALE_RFHD			SALE_LBHD			SALE_RBHD			SALE_LFTShould			SALE_RFTShould			SALE_LRRShould			SALE_RRRShould			SALE_T10			SALE_STRN			SALE_TRUN			SALE_LSHO			SALE_LUPA			SALE_LELB			SALE_LFRM			SALE_LWRA			SALE_LWRB			SALE_LFIN			SALE_RSHO			SALE_RUPA			SALE_RELB			SALE_RFRM			SALE_RWRB			SALE_RFIN			SALE_LFWT			SALE_RFWT			SALE_LBWT			SALE_RBWT			SALE_LTHI			SALE_LKNE			SALE_RWRA			SALE_LSHN			SALE_LANK			SALE_LHEE			SALE_LTOE			SALE_RTHI			SALE_RKNE			SALE_RSHN			SALE_RANK			SALE_RHEE			SALE_RTOE		
		X1	Y1	Z1	X2	Y2	Z2	X3	Y3	Z3	X4	Y4	Z4	X5	Y5	Z5	X6	Y6	Z6	X7	Y7	Z7	X8	Y8	Z8	X9	Y9	Z9	X10	Y10	Z10	X11	Y11	Z11	X12	Y12	Z12	X13	Y13	Z13	X14	Y14	Z14	X15	Y15	Z15	X16	Y16	Z16	X17	Y17	Z17	X18	Y18	Z18	X19	Y19	Z19	X20	Y20	Z20	X21	Y21	Z21	X22	Y22	Z22	X23	Y23	Z23	X24	Y24	Z24	X25	Y25	Z25	X26	Y26	Z26	X27	Y27	Z27	X28	Y28	Z28	X29	Y29	Z29	X30	Y30	Z30	X31	Y31	Z31	X32	Y32	Z32	X33	Y33	Z33	X34	Y34	Z34	X35	Y35	Z35	X36	Y36	Z36	X37	Y37	Z37	X38	Y38	Z38	X39	Y39	Z39	X40	Y40	Z40	X41	Y41	Z41
																																																																																																																												
1	0.5	241.71961	1640.67184	-1947.23038	109.06576	1642.32437	-1946.64459	236.46698	1632.66266	-2084.00192	108.56467	1631.78741	-2076.19141	244.28656	1391.2001	-2001.12381	104.62347	1388.38318	-1998.18329	236.27863	1440.159	-2117.12036	87.13754	1443.64014	-2108.12042	161.87984	1283.78448	-2170.81985	170.92302	1321.86203	-1946.85715	169.80742	1239.431	-1899.04449	356.2487	1413.71124	-2072.43973	397.9734	1196.55312	-2068.88672	381.59008	1084.94263	-2081.12274	411.39362	981.39923	-2044.90952	352.9142	849.42482	-1966.39191	416.57463	838.84987	-2007.85751	416.00864	799.94141	-1955.66742	-2.27703	1412.42111	-2059.98871	-31.36427	1182.35207	-2116.15311	-64.36591	1083.00186	-2073.00018	-56.86979	968.09319	-2076.24115	-83.57714	830.33463	-2026.34308	-103.31409	797.66296	-1973.02567	297.08817	971.46118	-1948.37708	16.87174	970.95398	-1965.8844	247.8451	1042.27036	-2115.76569	70.83267	1046.98776	-2126.50955	298.8715	679.01054	-2128.42499	286.90659	505.73997	-2058.98636	-49.63403	848.03795	-1965.43243	283.1728	309.3576	-2067.24152	277.16446	125.70273	-2121.11008	235.32986	75.76545	-2183.50174	243.54761	65.61072	-1951.48636	13.00916	729.25026	-2135.14496	31.18463	561.41045	-2039.38873	81.7655	375.50789	-2060.4776	37.40373	123.22017	-2120.30441	54.78977	70.31555	-1990.72144	84.22546	64.63691	-2190.70068
2	0.533	241.48899	1640.63705	-1946.62506	108.82592	1642.23038	-1945.76813	235.86767	1632.65564	-2083.33801	108.01991	1631.71753	-2075.36438	244.25249	1391.13953	-2000.35782	103.7422	1388.34091	-1997.94754	235.87435	1440.22003	-2116.54755	86.77605	1443.63083	-2107.38937	161.49179	1283.86002	-2170.28854	170.85491	1321.81778	-1946.35757	169.85954	1239.3103	-1898.58688	355.95642	1413.82629	-2072.0723	397.6453	1196.65123	-2068.74954	381.20487	1085.0106	-2081.04156	410.89569	981.40633	-2044.84604	352.61909	849.62776	-1966.36047	415.97778	838.85971	-2007.86469	415.29263	799.99435	-1955.61539	-2.55735	1412.31888	-2059.17587	-31.78423	1182.26593	-2115.33676	-64.85222	1083.02902	-2072.31644	-57.5806	968.08945	-2075.6218	-84.66752	830.46944	-2025.79193	-104.29687	797.64603	-1972.57858	297.11464	971.44432	-1948.26447	17.02996	970.82054	-1965.51971	247.67588	1042.27524	-2115.53604	70.61162	1046.95709	-2126.10962	298.76455	679.02016	-2128.31375	287.0084	505.87051	-2058.70728	-50.53558	847.97089	-1964.94415	283.17913	309.326	-2067.21985	277.20222	125.67757	-2121.17264	235.31765	75.75255	-2183.50601	243.54212	65.63303	-1951.49521	12.75501	729.24362	-2134.85123	31.25809	561.32732	-2038.96286	81.93342	375.41882	-2060.29877	37.46365	123.11818	-2120.2002	54.87783	70.34937	-1990.81604	84.22832	64.622	-2190.74158
3	0.567	241.07063	1640.55954	-1945.82977	108.44545	1642.06055	-1944.84543	235.43074	1632.71759	-2082.57874	107.56713	1631.67496	-2074.34219	243.99551	1391.21017	-1999.99146	103.87573	1388.32703	-1996.89056	235.46427	1440.31509	-2115.9523	86.409	1443.64243	-2106.61072	161.0784	1283.96835	-2169.74136	170.77608	1321.71402	-1945.90302	169.80742	1239.14207	-1898.11813	355.66059	1413.92426	-2071.72958	397.35741	1196.72791	-2068.59085	380.8691	1085.04997	-2080.96466	410.57373	981.39183	-2044.81659	351.83502	849.38774	-1966.54907	415.58159	838.825	-2007.95609	415.00141	800.06195	-1955.66574	-2.86595	1412.26883	-2058.36227	-32.30101	1182.25029	-2114.5697	-65.52352	1083.05107	-2071.55502	-58.45038	968.10158	-2075.01831	-85.65892	830.53909	-2025.36133	-105.37971	797.63817	-1972.13669	297.10762	971.46179	-1948.06198	17.0718	970.75562	-1965.0975	247.47387	1042.26212	-2115.31448	70.4157	1046.89888	-2125.63873	298.65505	679.03862	-2128.15643	286.94883	505.80696	-2058.76419	-51.48245	847.85561	-1964.50073	283.23904	309.34633	-2067.23358	277.2118	125.71871	-2121.23489	235.33375	75.77212	-2183.50571	243.57862	65.62227	-1951.52115	12.54521	729.26064	-2134.43802	31.38401	561.30894	-2038.43811	82.02504	375.33836	-2059.92706	37.51075	123.11679	-2120.12695	54.94328	70.35315	-1990.83008	84.23038	64.62607	-2190.7428
4	0.6	240.84059	1640.466	-1944.97574	108.15043	1641.90765	-1943.88092	234.97688	1632.79648	-2081.68015	107.17722	1631.67145	-2073.41919	243.84727	1391.11389	-1999.27704	104.002	1388.22403	-1996.04797	235.04429	1440.44174	-2115.36591	85.97688	1443.66928	-2105.82001	160.66696	1284.07349	-2169.17877	170.52174	1321.59103	-1945.26443	169.74192	1239.0023	-1897.63092	355.35175	1413.98102	-2071.26511	397.08549	1196.78238	-2068.41187	380.61344	1085.187	-2080.93872	410.41752	981.46042	-2044.9202	352.07458	849.44801	-1966.60828	415.51033	838.85872	-2008.0983	415.13954	800.14465	-1955.90149	-3.20222	1412.24152	-2057.45041	-32.86748	1182.33093	-2113.74664	-66.25757	1083.18336	-2070.79269	-59.34763	968.19969	-2074.41605	-86.86182	830.80307	-2025.07599	-106.40268	797.65518	-1971.69785	297.19559	971.53343	-1947.89368	17.10945	970.71678	-1964.47205	247.26536	1042.29385	-2115.0264	70.14858	1046.81908	-2125.11017	298.50241	679.02786	-2127.95258	287.0731	505.75726	-2058.87848	-52.20939	847.89345	-1964.09561	283.26538	309.34311	-2067.15332	277.1973	125.71895	-2121.24298	235.34117	75.74281	-2183.51074	243.61088	65.65314	-1951.51703	12.41925	729.31549	-2133.86261	31.45033	561.28487	-2037.9657	82.00994	375.26947	-2059.65851	37.53022	123.12459	-2120.08026	54.96454	70.34553	-1990.84076	84.22933	64.62684	-2190.74295
5	0.633	240.43377	1640.3508	-1943.992	107.86376	1641.74576	-1942.87201	234.62048	1632.84042	-2080.76492	106.77602	1631.68854	-2072.42447	243.6706	1391.16013	-1998.84186	103.46473	1388.18054	-1995.42648	234.60388	1440.49789	-2114.68567	85.58576	1443.69385	-2104.92294	160.18133	1284.16519	-2168.55408	170.45992	1321.51489	-1944.68658	169.69156	1238.83034	-1896.97906	354.9678	1414.10782	-2070.8844	396.86729	1196.95641	-2068.35052	380.45013	1085.28587	-2080.8551	410.39967	981.56044	-2045.00885	352.5071	849.4799	-1966.63147	415.7756	838.9698	-2008.43216	415.57888	800.24605	-1956.21094	-3.51029	1412.20291	-2056.45859	-33.44207	1182.40479	-2112.91443	-66.96299	1083.28285	-2070.07095	-60.26636	968.29544	-2073.79944	-87.8002	830.85167	-2024.55505	-107.46131	797.73262	-1971.1972	297.22818	971.50642	-1947.6767	17.07198	970.68008	-1963.75839	247.00254	1042.29446	-2114.70596	69.90689	1046.76369	-2124.53796	298.31064	679.06235	-2127.68921	286.87796	505.84599	-2058.22388	-53.47006	847.81822	-1963.57056	283.22811	309.2971	-2067.0166	277.18145	125.74532	-2121.17966	235.35126	75.78308	-2183.53348	243.63279	65.62259	-1951.52298	12.41316	729.25003	-2133.1813	31.44992	561.2558	-2037.57904	82.00199	375.2137	-2059.44824	37.50811	123.1091	-2120.01678	54.99184	70.35297	-1990.87051	84.21542	64.65814	-2190.73929
6	0.667	240.08568	1640.26505	-1943.05923	107.42899	1641.65451	-1941.91986	234.19691	1632.8952	-2079.80011	106.37538	1631.7157	-2071.46576	242.17405	1390.50552	-1997.11945	102.66824	1388.12836	-1994.87015	234.10841	1440.65933	-2114.20715	85.13294	1443.6319	-2103.96011	159.72708	1284.23019	-2167.79572	170.35896	1321.43951	-1943.91922	169.70144	1238.69804	-1896.35498	354.45675	1414.1124	-2070.25665	396.70921	1197.08588	-2068.15948	380.40482	1085.46028	-2080.74158	410.60986	981.74324	-2045.17715	352.86785	849.32533	-1966.66077	416.20644	839.05014	-2008.71124	416.45256	800.39047	-1956.61789	-3.82411	1412.09702	-2055.41779	-33.90782	1182.43141	-2112.13318	-67.627	1083.25005	-2069.38568	-61.03761	968.29056	-2073.18115	-88.76316	830.89462	-2024.14337	-108.43914	797.72324	-1970.67657	297.24819	971.46637	-1947.24701	17.13133	970.59387	-1963.05893	246.77885	1042.27356	-2114.26025	69.65503	1046.74118	-2123.84186	298.12502	679.10774	-2127.44888	286.82083	505.88379	-2057.99088	-54.34747	847.63535	-1963.16559	283.16292	309.29106	-2066.95389	277.16476	125.79583	-2121.21826	235.32957	75.77972	-2183.51395	243.64113	65.63895	-1951.52527	12.2878	729.20235	-2132.56668	31.38501	561.22665	-2037.37198	81.99144	375.25475	-2059.37408	37.5011	123.13428	-2119.91577	55.03067	70.33334	-1990.83206	84.22749	64.68327	-2190.71991
7	0.7	239.90826	1640.27679	-1942.18353	107.18608	1641.48605	-1940.77072	233.68656	1632.92007	-2078.88763	105.93484	1631.5979	-2070.36575	243.23259	1391.07574	-1997.33292	103.16294	1387.91779	-1993.4671	233.7315	1440.5455	-2113.14529	84.70024	1443.59833	-2102.94067	159.33348	1284.24622	-2167.00165	170.18122	1321.25626	-1943.08289	169.6237	1238.51479	-1895.57571	354.07692	1414.21722	-2069.63989	396.62262	1197.23	-2067.90039	380.47356	1085.58083	-2080.57816	410.97	981.88828	-2045.2356	353.75629	849.32602	-1966.79153	416.84998	839.10179	-2008.94882	417.46368	800.47585	-1957.01218	-4.11094	1411.97433	-2054.33792	-34.29021	1182.35413	-2111.20804	-68.14319	1083.20274	-2068.58566	-61.74063	968.2251	-2072.50946	-89.70588	830.9343	-2023.71384	-109.34827	797.6239	-1970.14587	297.0969	971.39572	-1946.80527	16.91596	970.37727	-1962.42462	246.50686	1042.30331	-2113.67706	69.39338	1046.772	-2123.0899	297.97398	679.17564	-2127.20261	287.00619	505.97435	-2057.97943	-55.0548	847.25296	-1962.48276	283.16925	309.34513	-2066.89972	277.13043	125.79205	-2121.20438	235.32732	75.78509	-2183.53546	243.67359	65.63234	-1951.5126	12.06988	729.26239	-2132.18552	31.23143	561.15288	-2037.34482	81.84239	375.29686	-2059.49783	37.48949	123.12742	-2119.97101	55.00594	70.33488	-1990.82153	84.21797	64.7292	-2190.71533
